<svg xmlns="http://www.w3.org/2000/svg" version="1.1" xmlns:xlink="http://www.w3.org/1999/xlink" xmlns:svgjs="http://svgjs.dev/svgjs" viewBox="0 0 13.400805486827306 3.2238939371596436"><g transform="matrix(1,0,0,1,2.783102819258304,1.0704469685798217)"><g><path d=" M 1.341 0.020999999999999908 L 1.341 0.050999999999999934 Q 1.293 0.05249999999999999 1.2690000000000001 0.062249999999999917 Q 1.245 0.07199999999999984 1.23675 0.09824999999999995 Q 1.2285 0.12449999999999994 1.2285 0.17999999999999994 L 1.2285 0.9239999999999999 Q 1.2285 0.978 1.23675 1.005 Q 1.245 1.032 1.2690000000000001 1.041 Q 1.293 1.05 1.341 1.053 L 1.341 1.083 Q 1.299 1.08 1.23525 1.07925 Q 1.1715 1.0785 1.1055 1.0785 Q 1.0335 1.0785 0.9705 1.07925 Q 0.9075 1.08 0.8685 1.083 L 0.8685 1.053 Q 0.9195 1.05 0.94575 1.041 Q 0.972 1.032 0.981 1.005 Q 0.99 0.978 0.99 0.9239999999999999 L 0.99 0.11249999999999993 L 1.0005 0.11249999999999993 L 0.6285000000000001 1.0845 L 0.6045 1.0845 L 0.1995 0.11849999999999994 L 0.1995 0.837 Q 0.1995 0.9195 0.2085 0.96375 Q 0.2175 1.008 0.24825 1.02675 Q 0.279 1.0454999999999999 0.34500000000000003 1.053 L 0.34500000000000003 1.083 Q 0.3165 1.08 0.27 1.07925 Q 0.2235 1.0785 0.183 1.0785 Q 0.1485 1.0785 0.1125 1.07925 Q 0.0765 1.08 0.0525 1.083 L 0.0525 1.053 Q 0.1005 1.0454999999999999 0.1245 1.0274999999999999 Q 0.1485 1.0095 0.15675 0.9682499999999999 Q 0.165 0.9269999999999999 0.165 0.855 L 0.165 0.17999999999999994 Q 0.165 0.12449999999999994 0.15675 0.09824999999999995 Q 0.1485 0.07199999999999984 0.12375 0.062249999999999917 Q 0.099 0.05249999999999999 0.0525 0.050999999999999934 L 0.0525 0.020999999999999908 Q 0.0765 0.022499999999999964 0.1125 0.02400000000000002 Q 0.1485 0.025499999999999856 0.183 0.025499999999999856 Q 0.2475 0.025499999999999856 0.30975 0.02400000000000002 Q 0.372 0.022499999999999964 0.42 0.020999999999999908 L 0.735 0.7815 L 0.6975 0.816 L 0.999 0.025499999999999856 Q 1.0245 0.025499999999999856 1.0515 0.025499999999999856 Q 1.0785 0.025499999999999856 1.1055 0.025499999999999856 Q 1.1715 0.025499999999999856 1.23525 0.02400000000000002 Q 1.299 0.022499999999999964 1.341 0.020999999999999908 M 1.989009521484375 0 Q 2.1480095214843753 0 2.267259521484375 0.0645 Q 2.386509521484375 0.1289999999999999 2.452509521484375 0.24974999999999992 Q 2.518509521484375 0.37049999999999994 2.518509521484375 0.5429999999999999 Q 2.518509521484375 0.711 2.4510095214843752 0.837 Q 2.383509521484375 0.963 2.262759521484375 1.0334999999999999 Q 2.142009521484375 1.1039999999999999 1.987509521484375 1.1039999999999999 Q 1.8285095214843752 1.1039999999999999 1.709259521484375 1.0394999999999999 Q 1.590009521484375 0.975 1.5240095214843752 0.8534999999999999 Q 1.4580095214843751 0.732 1.4580095214843751 0.5609999999999999 Q 1.4580095214843751 0.3929999999999999 1.526259521484375 0.2669999999999999 Q 1.5945095214843752 0.1409999999999999 1.713759521484375 0.07050000000000001 Q 1.8330095214843751 0 1.989009521484375 0 M 1.9830095214843753 0.026999999999999913 Q 1.8990095214843752 0.026999999999999913 1.836759521484375 0.09449999999999992 Q 1.7745095214843751 0.16199999999999992 1.7407595214843752 0.28049999999999997 Q 1.707009521484375 0.3989999999999999 1.707009521484375 0.5549999999999999 Q 1.707009521484375 0.714 1.7452595214843751 0.83175 Q 1.7835095214843752 0.9495 1.848759521484375 1.01325 Q 1.914009521484375 1.077 1.9935095214843752 1.077 Q 2.0775095214843753 1.077 2.139759521484375 1.0095 Q 2.202009521484375 0.942 2.235759521484375 0.82275 Q 2.269509521484375 0.7035 2.269509521484375 0.5489999999999999 Q 2.269509521484375 0.38849999999999996 2.2312595214843753 0.27149999999999996 Q 2.1930095214843752 0.15449999999999997 2.127759521484375 0.09075 Q 2.062509521484375 0.026999999999999913 1.9830095214843753 0.026999999999999913 M 3.5820952148437506 0.020999999999999908 L 3.5820952148437506 0.050999999999999934 Q 3.5490952148437502 0.06299999999999994 3.51234521484375 0.10349999999999993 Q 3.47559521484375 0.1439999999999999 3.4440952148437503 0.22949999999999993 L 3.1275952148437502 1.0859999999999999 Q 3.1155952148437502 1.0845 3.10209521484375 1.0845 Q 3.08859521484375 1.0845 3.07509521484375 1.0845 Q 3.0630952148437505 1.0845 3.0495952148437504 1.0845 Q 3.0360952148437503 1.0845 3.0240952148437503 1.0859999999999999 L 2.64159521484375 0.1469999999999999 Q 2.62059521484375 0.09299999999999997 2.59509521484375 0.07274999999999987 Q 2.5695952148437504 0.05249999999999999 2.5470952148437505 0.050999999999999934 L 2.5470952148437505 0.020999999999999908 Q 2.5920952148437504 0.022499999999999964 2.6528452148437505 0.02400000000000002 Q 2.71359521484375 0.025499999999999856 2.77509521484375 0.025499999999999856 Q 2.84409521484375 0.025499999999999856 2.9048452148437502 0.02400000000000002 Q 2.9655952148437503 0.022499999999999964 3.0030952148437504 0.020999999999999908 L 3.0030952148437504 0.050999999999999934 Q 2.9295952148437503 0.05400000000000005 2.9070952148437503 0.07574999999999998 Q 2.8845952148437504 0.09749999999999992 2.9160952148437502 0.17699999999999994 L 3.1890952148437504 0.8714999999999999 L 3.1575952148437505 0.9089999999999999 L 3.3645952148437503 0.351 Q 3.40509521484375 0.23849999999999993 3.40659521484375 0.17399999999999993 Q 3.40809521484375 0.10949999999999993 3.3750952148437503 0.08099999999999996 Q 3.3420952148437504 0.05249999999999999 3.2805952148437503 0.050999999999999934 L 3.2805952148437503 0.020999999999999908 Q 3.3315952148437504 0.022499999999999964 3.3765952148437504 0.02400000000000002 Q 3.4215952148437503 0.025499999999999856 3.4680952148437503 0.025499999999999856 Q 3.50109521484375 0.025499999999999856 3.5303452148437504 0.02400000000000002 Q 3.55959521484375 0.022499999999999964 3.5820952148437506 0.020999999999999908 M 4.096639892578125 0.020999999999999908 L 4.096639892578125 0.050999999999999934 Q 4.048639892578126 0.05249999999999999 4.023889892578126 0.062249999999999917 Q 3.999139892578125 0.07199999999999984 3.9916398925781253 0.09824999999999995 Q 3.9841398925781255 0.12449999999999994 3.9841398925781255 0.17999999999999994 L 3.9841398925781255 0.9239999999999999 Q 3.9841398925781255 0.978 3.9923898925781254 1.005 Q 4.000639892578126 1.032 4.024639892578126 1.041 Q 4.048639892578126 1.05 4.096639892578125 1.053 L 4.096639892578125 1.083 Q 4.056139892578125 1.08 3.9946398925781255 1.07925 Q 3.9331398925781254 1.0785 3.870139892578125 1.0785 Q 3.7966398925781255 1.0785 3.7343898925781254 1.07925 Q 3.6721398925781252 1.08 3.6331398925781255 1.083 L 3.6331398925781255 1.053 Q 3.6811398925781256 1.05 3.705139892578125 1.041 Q 3.729139892578125 1.032 3.7373898925781255 1.005 Q 3.7456398925781254 0.978 3.7456398925781254 0.9239999999999999 L 3.7456398925781254 0.17999999999999994 Q 3.7456398925781254 0.12449999999999994 3.7373898925781255 0.09824999999999995 Q 3.729139892578125 0.07199999999999984 3.7043898925781256 0.062249999999999917 Q 3.6796398925781255 0.05249999999999999 3.6331398925781255 0.050999999999999934 L 3.6331398925781255 0.020999999999999908 Q 3.6721398925781252 0.022499999999999964 3.7343898925781254 0.02400000000000002 Q 3.7966398925781255 0.025499999999999856 3.870139892578125 0.025499999999999856 Q 3.9331398925781254 0.025499999999999856 3.9946398925781255 0.02400000000000002 Q 4.056139892578125 0.022499999999999964 4.096639892578125 0.020999999999999908 M 5.014604736328126 0.020999999999999908 Q 5.008604736328126 0.08699999999999997 5.0063547363281256 0.14849999999999997 Q 5.0041047363281255 0.20999999999999996 5.0041047363281255 0.243 Q 5.0041047363281255 0.2729999999999999 5.0056047363281255 0.29999999999999993 Q 5.007104736328126 0.32699999999999996 5.008604736328126 0.345 L 4.974104736328125 0.345 Q 4.9591047363281255 0.23549999999999993 4.927604736328125 0.17174999999999996 Q 4.896104736328126 0.10799999999999998 4.845854736328126 0.08174999999999999 Q 4.795604736328126 0.05549999999999988 4.728104736328126 0.05549999999999988 L 4.666604736328125 0.05549999999999988 Q 4.621604736328125 0.05549999999999988 4.599854736328125 0.06299999999999994 Q 4.578104736328125 0.07050000000000001 4.570604736328126 0.09224999999999994 Q 4.563104736328126 0.11399999999999999 4.563104736328126 0.16199999999999992 L 4.563104736328126 0.942 Q 4.563104736328126 0.9884999999999999 4.570604736328126 1.011 Q 4.578104736328125 1.0334999999999999 4.599854736328125 1.041 Q 4.621604736328125 1.0485 4.666604736328125 1.0485 L 4.740104736328125 1.0485 Q 4.807604736328125 1.0485 4.859354736328125 1.01925 Q 4.9111047363281255 0.99 4.947854736328125 0.9195 Q 4.984604736328126 0.849 5.0041047363281255 0.729 L 5.038604736328126 0.729 Q 5.034104736328126 0.7769999999999999 5.034104736328126 0.855 Q 5.034104736328126 0.8895 5.035604736328126 0.9524999999999999 Q 5.037104736328126 1.0154999999999998 5.044604736328125 1.083 Q 4.968104736328126 1.08 4.872104736328126 1.07925 Q 4.776104736328126 1.0785 4.7011047363281255 1.0785 Q 4.650104736328125 1.0785 4.566104736328126 1.0785 Q 4.482104736328125 1.0785 4.387604736328125 1.07925 Q 4.293104736328125 1.08 4.212104736328126 1.083 L 4.212104736328126 1.053 Q 4.260104736328126 1.05 4.284104736328126 1.041 Q 4.308104736328126 1.032 4.316354736328125 1.005 Q 4.3246047363281255 0.978 4.3246047363281255 0.9239999999999999 L 4.3246047363281255 0.17999999999999994 Q 4.3246047363281255 0.12449999999999994 4.316354736328125 0.09824999999999995 Q 4.308104736328126 0.07199999999999984 4.283354736328126 0.062249999999999917 Q 4.258604736328126 0.05249999999999999 4.212104736328126 0.050999999999999934 L 4.212104736328126 0.020999999999999908 Q 4.293104736328125 0.022499999999999964 4.387604736328125 0.02400000000000002 Q 4.482104736328125 0.025499999999999856 4.566104736328126 0.025499999999999856 Q 4.650104736328125 0.025499999999999856 4.7011047363281255 0.025499999999999856 Q 4.7701047363281255 0.025499999999999856 4.857854736328125 0.02475000000000005 Q 4.945604736328125 0.02400000000000002 5.014604736328126 0.020999999999999908 M 4.780604736328126 0.5339999999999999 Q 4.780604736328126 0.5339999999999999 4.780604736328126 0.5489999999999999 Q 4.780604736328126 0.564 4.780604736328126 0.564 L 4.518104736328126 0.564 Q 4.518104736328126 0.564 4.518104736328126 0.5489999999999999 Q 4.518104736328126 0.5339999999999999 4.518104736328126 0.5339999999999999 L 4.780604736328126 0.5339999999999999 M 4.824104736328126 0.33599999999999997 Q 4.8181047363281255 0.4215 4.8188547363281256 0.4664999999999999 Q 4.819604736328126 0.5115 4.819604736328126 0.5489999999999999 Q 4.819604736328126 0.5865 4.821104736328126 0.6315 Q 4.822604736328126 0.6764999999999999 4.828604736328126 0.762 L 4.7941047363281255 0.762 Q 4.786604736328125 0.7095 4.766354736328125 0.6645 Q 4.7461047363281255 0.6194999999999999 4.708604736328126 0.59175 Q 4.671104736328125 0.564 4.611104736328126 0.564 L 4.611104736328126 0.5339999999999999 Q 4.671104736328125 0.5339999999999999 4.707104736328126 0.501 Q 4.743104736328125 0.46799999999999997 4.762604736328125 0.4222499999999999 Q 4.782104736328126 0.37649999999999995 4.789604736328125 0.33599999999999997 L 4.824104736328126 0.33599999999999997 M 5.55306298828125 0.0014999999999998348 Q 5.64156298828125 0.0014999999999998348 5.68956298828125 0.02024999999999988 Q 5.73756298828125 0.038999999999999924 5.772062988281251 0.05999999999999983 Q 5.79006298828125 0.07050000000000001 5.80131298828125 0.07574999999999998 Q 5.81256298828125 0.08099999999999996 5.82306298828125 0.08099999999999996 Q 5.84706298828125 0.08099999999999996 5.85606298828125 0.014999999999999902 L 5.89056298828125 0.014999999999999902 Q 5.88906298828125 0.04349999999999987 5.8868129882812505 0.08324999999999994 Q 5.8845629882812505 0.123 5.88381298828125 0.1874999999999999 Q 5.88306298828125 0.2519999999999999 5.88306298828125 0.357 L 5.84856298828125 0.357 Q 5.84256298828125 0.2789999999999999 5.81256298828125 0.2054999999999999 Q 5.78256298828125 0.1319999999999999 5.72781298828125 0.08474999999999999 Q 5.67306298828125 0.03749999999999987 5.59356298828125 0.03749999999999987 Q 5.52156298828125 0.03749999999999987 5.47506298828125 0.07799999999999985 Q 5.42856298828125 0.11849999999999994 5.42856298828125 0.1904999999999999 Q 5.42856298828125 0.25049999999999994 5.45856298828125 0.2932499999999999 Q 5.4885629882812506 0.33599999999999997 5.54631298828125 0.37649999999999995 Q 5.6040629882812505 0.4169999999999999 5.68656298828125 0.474 Q 5.75856298828125 0.5205 5.8155629882812505 0.567 Q 5.87256298828125 0.6134999999999999 5.90706298828125 0.6719999999999999 Q 5.94156298828125 0.7304999999999999 5.94156298828125 0.8114999999999999 Q 5.94156298828125 0.9105 5.88981298828125 0.975 Q 5.8380629882812505 1.0394999999999999 5.75406298828125 1.07175 Q 5.67006298828125 1.1039999999999999 5.56956298828125 1.1039999999999999 Q 5.47656298828125 1.1039999999999999 5.42106298828125 1.0859999999999999 Q 5.36556298828125 1.068 5.32806298828125 1.0485 Q 5.29506298828125 1.0274999999999999 5.2770629882812505 1.0274999999999999 Q 5.2530629882812505 1.0274999999999999 5.24406298828125 1.0935 L 5.20956298828125 1.0935 Q 5.21256298828125 1.0574999999999999 5.21331298828125 1.0095 Q 5.21406298828125 0.9615 5.21481298828125 0.88425 Q 5.21556298828125 0.8069999999999999 5.21556298828125 0.6884999999999999 L 5.25006298828125 0.6884999999999999 Q 5.256062988281251 0.7875 5.28381298828125 0.87375 Q 5.31156298828125 0.96 5.3693129882812505 1.0125 Q 5.42706298828125 1.065 5.52306298828125 1.065 Q 5.60106298828125 1.065 5.65506298828125 1.023 Q 5.70906298828125 0.981 5.70906298828125 0.897 Q 5.70906298828125 0.8039999999999999 5.64606298828125 0.74325 Q 5.583062988281251 0.6824999999999999 5.48406298828125 0.6179999999999999 Q 5.41356298828125 0.5714999999999999 5.35206298828125 0.5249999999999999 Q 5.29056298828125 0.4784999999999999 5.2538129882812505 0.4185 Q 5.21706298828125 0.35849999999999993 5.21706298828125 0.2759999999999999 Q 5.21706298828125 0.1815 5.26431298828125 0.12074999999999991 Q 5.31156298828125 0.05999999999999983 5.38881298828125 0.030749999999999833 Q 5.466062988281251 0.0014999999999998348 5.55306298828125 0.0014999999999998348 M 7.421996337890625 0.020999999999999908 L 7.421996337890625 0.050999999999999934 Q 7.373996337890625 0.05699999999999994 7.349996337890625 0.07574999999999998 Q 7.325996337890625 0.09449999999999992 7.3177463378906245 0.1349999999999999 Q 7.309496337890625 0.1755 7.309496337890625 0.249 L 7.309496337890625 1.0859999999999999 Q 7.291496337890624 1.0845 7.2727463378906245 1.0845 Q 7.253996337890625 1.0845 7.232996337890625 1.0859999999999999 L 6.581996337890624 0.2609999999999999 L 6.581996337890624 0.837 Q 6.581996337890624 0.9195 6.5909963378906244 0.96375 Q 6.599996337890625 1.008 6.630746337890624 1.02675 Q 6.6614963378906245 1.0454999999999999 6.727496337890624 1.053 L 6.727496337890624 1.083 Q 6.698996337890625 1.08 6.652496337890625 1.07925 Q 6.605996337890624 1.0785 6.565496337890624 1.0785 Q 6.530996337890625 1.0785 6.494996337890624 1.07925 Q 6.458996337890625 1.08 6.434996337890625 1.083 L 6.434996337890625 1.053 Q 6.482996337890625 1.0454999999999999 6.506996337890625 1.0274999999999999 Q 6.530996337890625 1.0095 6.539246337890624 0.9682499999999999 Q 6.547496337890625 0.9269999999999999 6.547496337890625 0.855 L 6.547496337890625 0.17999999999999994 Q 6.547496337890625 0.12449999999999994 6.539246337890624 0.09824999999999995 Q 6.530996337890625 0.07199999999999984 6.506246337890625 0.062249999999999917 Q 6.481496337890625 0.05249999999999999 6.434996337890625 0.050999999999999934 L 6.434996337890625 0.020999999999999908 Q 6.458996337890625 0.022499999999999964 6.494996337890624 0.02400000000000002 Q 6.530996337890625 0.025499999999999856 6.565496337890624 0.025499999999999856 Q 6.601496337890625 0.025499999999999856 6.634496337890624 0.02400000000000002 Q 6.667496337890625 0.022499999999999964 6.694496337890625 0.020999999999999908 L 7.274996337890625 0.7364999999999999 L 7.274996337890625 0.2669999999999999 Q 7.274996337890625 0.1845 7.265996337890624 0.14024999999999999 Q 7.256996337890625 0.09599999999999997 7.2262463378906245 0.07650000000000001 Q 7.195496337890624 0.05699999999999994 7.129496337890624 0.050999999999999934 L 7.129496337890624 0.020999999999999908 Q 7.157996337890625 0.022499999999999964 7.204496337890625 0.02400000000000002 Q 7.250996337890625 0.025499999999999856 7.291496337890624 0.025499999999999856 Q 7.327496337890625 0.025499999999999856 7.362746337890624 0.02400000000000002 Q 7.397996337890625 0.022499999999999964 7.421996337890625 0.020999999999999908 M 8.065445068359374 0 Q 8.224445068359374 0 8.343695068359374 0.0645 Q 8.462945068359375 0.1289999999999999 8.528945068359373 0.24974999999999992 Q 8.594945068359374 0.37049999999999994 8.594945068359374 0.5429999999999999 Q 8.594945068359374 0.711 8.527445068359373 0.837 Q 8.459945068359374 0.963 8.339195068359373 1.0334999999999999 Q 8.218445068359374 1.1039999999999999 8.063945068359374 1.1039999999999999 Q 7.904945068359374 1.1039999999999999 7.785695068359375 1.0394999999999999 Q 7.666445068359375 0.975 7.600445068359374 0.8534999999999999 Q 7.534445068359374 0.732 7.534445068359374 0.5609999999999999 Q 7.534445068359374 0.3929999999999999 7.602695068359374 0.2669999999999999 Q 7.670945068359374 0.1409999999999999 7.790195068359374 0.07050000000000001 Q 7.909445068359374 0 8.065445068359374 0 M 8.059445068359373 0.026999999999999913 Q 7.975445068359374 0.026999999999999913 7.913195068359374 0.09449999999999992 Q 7.8509450683593744 0.16199999999999992 7.817195068359374 0.28049999999999997 Q 7.7834450683593746 0.3989999999999999 7.7834450683593746 0.5549999999999999 Q 7.7834450683593746 0.714 7.821695068359374 0.83175 Q 7.859945068359374 0.9495 7.925195068359375 1.01325 Q 7.990445068359374 1.077 8.069945068359374 1.077 Q 8.153945068359373 1.077 8.216195068359374 1.0095 Q 8.278445068359375 0.942 8.312195068359374 0.82275 Q 8.345945068359374 0.7035 8.345945068359374 0.5489999999999999 Q 8.345945068359374 0.38849999999999996 8.307695068359374 0.27149999999999996 Q 8.269445068359374 0.15449999999999997 8.204195068359374 0.09075 Q 8.138945068359375 0.026999999999999913 8.059445068359373 0.026999999999999913 M 10.107016845703125 0.020999999999999908 L 10.107016845703125 0.050999999999999934 Q 10.074016845703124 0.06299999999999994 10.038016845703124 0.1027499999999999 Q 10.002016845703125 0.14249999999999996 9.975016845703125 0.22949999999999993 L 9.711016845703124 1.0859999999999999 Q 9.699016845703124 1.0845 9.685516845703125 1.0845 Q 9.672016845703125 1.0845 9.658516845703124 1.0845 Q 9.645016845703125 1.0845 9.631516845703125 1.0845 Q 9.618016845703124 1.0845 9.606016845703124 1.0859999999999999 L 9.291016845703124 0.1319999999999999 Q 9.276016845703126 0.08549999999999991 9.254266845703125 0.06899999999999995 Q 9.232516845703124 0.05249999999999999 9.208516845703125 0.050999999999999934 L 9.208516845703125 0.020999999999999908 Q 9.250516845703125 0.022499999999999964 9.308266845703125 0.02400000000000002 Q 9.366016845703125 0.025499999999999856 9.423016845703124 0.025499999999999856 Q 9.489016845703125 0.025499999999999856 9.546766845703125 0.02400000000000002 Q 9.604516845703126 0.022499999999999964 9.639016845703125 0.020999999999999908 L 9.639016845703125 0.050999999999999934 Q 9.594016845703125 0.05249999999999999 9.567766845703124 0.06149999999999989 Q 9.541516845703125 0.07050000000000001 9.537766845703125 0.09599999999999997 Q 9.534016845703125 0.12149999999999994 9.552016845703125 0.17699999999999994 L 9.765016845703125 0.828 L 9.730516845703125 0.8895 L 9.900016845703124 0.351 Q 9.936016845703126 0.237 9.934516845703126 0.1725 Q 9.933016845703126 0.10799999999999998 9.900016845703124 0.08024999999999993 Q 9.867016845703125 0.05249999999999999 9.805516845703124 0.050999999999999934 L 9.805516845703124 0.020999999999999908 Q 9.856516845703124 0.022499999999999964 9.901516845703124 0.02400000000000002 Q 9.946516845703124 0.025499999999999856 9.991516845703124 0.025499999999999856 Q 10.026016845703126 0.025499999999999856 10.055266845703125 0.02400000000000002 Q 10.084516845703124 0.022499999999999964 10.107016845703125 0.020999999999999908 M 9.036016845703125 0.020999999999999908 L 9.036016845703125 0.050999999999999934 Q 9.006016845703124 0.05549999999999988 8.994016845703126 0.07274999999999987 Q 8.982016845703125 0.08999999999999997 8.984266845703125 0.11774999999999991 Q 8.986516845703125 0.14549999999999996 8.997016845703126 0.17699999999999994 L 9.226516845703125 0.843 L 9.186016845703126 0.897 L 9.378016845703124 0.33599999999999997 L 9.399016845703125 0.37649999999999995 L 9.163516845703125 1.0859999999999999 Q 9.151516845703124 1.0845 9.138016845703124 1.0845 Q 9.124516845703125 1.0845 9.111016845703125 1.0845 Q 9.097516845703124 1.0845 9.084016845703125 1.0845 Q 9.070516845703125 1.0845 9.058516845703124 1.0859999999999999 L 8.722516845703124 0.1469999999999999 Q 8.703016845703125 0.09149999999999991 8.676766845703124 0.07199999999999984 Q 8.650516845703125 0.05249999999999999 8.628016845703124 0.050999999999999934 L 8.628016845703124 0.020999999999999908 Q 8.673016845703124 0.022499999999999964 8.734516845703125 0.02400000000000002 Q 8.796016845703125 0.025499999999999856 8.851516845703125 0.025499999999999856 Q 8.911516845703124 0.025499999999999856 8.958766845703124 0.02400000000000002 Q 9.006016845703124 0.022499999999999964 9.036016845703125 0.020999999999999908" fill="#80caff" fill-rule="nonzero"></path></g><g></g><g clip-path="url(#SvgjsClipPath1001)"><g clip-path="url(#SvgjsClipPath1000a6d252cf-60d0-42e9-81b3-c75c02fca2a3)"><path d=" M -1.7147279913657982 -0.18999927665019373 C -1.7484966897741665 -0.18213723096947598 -1.7659178746966377 -0.1791586585970465 -1.7826463683697065 -0.17403274335146723 C -1.8817704861591926 -0.14369286662764108 -1.9807907002612692 -0.11304127884158427 -2.079707010675935 -0.08207797999329558 C -2.094679868419907 -0.07781964684411985 -2.1093707096631267 -0.07262579824710597 -2.1236929050129887 -0.066527061444211 C -2.183501811474834 -0.041794806452417954 -2.2190827089222807 0.020187116901032476 -2.2102793111882924 0.0843064581131664 C -2.2027379270828686 0.13608503307536557 -2.186582821173194 0.1862361009862672 -2.1624836149795255 0.2326809237351648 C -2.078702608364302 0.24023125835365056 -1.995960638623183 0.2351053431080733 -1.913426476256884 0.23614437998217708 C -1.830892313890585 0.2371834168562802 -1.7473883837751232 0.2363521873569977 -1.6643693375342434 0.2363521873569977 L -0.909335875685602 0.2363521873569977 C -0.826212925757311 0.2363521873569977 -0.7432977832038412 0.23590193804488602 -0.6603133715254312 0.2363521873569977 C -0.5773289598470204 0.23680243666910938 -0.4950372394180125 0.2336506914843276 -0.4129186918013561 0.23839562654273472 C -0.40019243145840444 0.26536158802406484 -0.395999584461302 0.29556941941529236 -0.40090049862422394 0.3249820327180375 C -0.4003925250413285 0.597440590816324 -0.4002886213539185 0.8698991489146101 -0.4005887875619927 1.1423577070128959 C -0.4005887875619927 1.235732487432342 -0.4005887875619927 1.3291303575601026 -0.4005887875619927 1.4225513173961755 C -0.40003782512769614 1.443282855275132 -0.40068541656686274 1.4640289095941608 -0.40252832306031916 1.4846857224675718 C -0.41094120146619306 1.5565898710172261 -0.4650349067893744 1.614721675649136 -0.536148465070047 1.628280618468695 C -0.5643244469346806 1.6325643957261677 -0.5928251698515115 1.6343377225282318 -0.6213148541840745 1.633579706526624 C -1.0779369257901512 1.6339029624430115 -1.5345474525420724 1.6339029624430115 -1.9911464344398357 1.633579706526624 C -2.0170567697495567 1.634319172069583 -2.042986483831553 1.6331615955480658 -2.0687278543729075 1.6301162502796123 C -2.1490719735995296 1.6194067361715065 -2.2102184990136697 1.5527027617633808 -2.2139159402476554 1.4717323961037483 C -2.215474495558811 1.448457970123827 -2.214539362372118 1.4250450058940247 -2.214539362372118 1.4017013107891634 C -2.214539362372118 1.0462814307207795 -2.2150935153716396 0.6908615506523964 -2.2139852093725962 0.3354070360215441 C -2.212455196029542 0.2835398557186264 -2.220679116832189 0.2318466392448435 -2.238229403101681 0.18301496115301108 C -2.245634849517155 0.16362870545443375 -2.2517099841707453 0.1437601222159316 -2.256412548398495 0.12354741739181263 C -2.2715977730463566 0.07303634652771185 -2.2657801573490275 0.018536511467166394 -2.24027491926888 -0.02763103295442304 C -2.2147696811887343 -0.0737985773760117 -2.171730515577671 -0.10773538479114775 -2.12088750545291 -0.12176918858405422 C -1.9509357074120253 -0.17718448853624896 -1.7797024305597469 -0.22885925574166988 -1.6089194030195788 -0.28191940544589494 C -1.341656029291811 -0.36504235537418606 -1.0743811107098868 -0.4480960361775369 -0.8070946472738048 -0.5310804478559463 C -0.7590112970924869 -0.5512811828491893 -0.7057088009874548 -0.5554943869832317 -0.6550489180299728 -0.543098641033079 C -0.6015294286000286 -0.5288160875194021 -0.5570502032578246 -0.49162542147379795 -0.533516238322318 -0.4414808347457443 C -0.5075935671373322 -0.38338848017487115 -0.48885633958282604 -0.32235001325615764 -0.4777199581829523 -0.259718650902548 C -0.48894155642327175 -0.23346565255019525 -0.5110037727167389 -0.23180319355162965 -0.5303644931375369 -0.22577677968182908 C -0.8124283698942028 -0.13792043954928923 -1.09449224665087 -0.050075644270904385 -1.3765561234075365 0.03775760615332269 C -1.5150943732880209 0.08088918128277955 -1.653701892293446 0.12388221816235667 -1.7923786804238104 0.16673671679205337 C -1.7947605169141165 0.16775934082263655 -1.7972147188651737 0.16860441979634933 -1.7997212076674756 0.16926503985237262 C -1.8264937244568795 0.17335191822384677 -1.8560023716814227 0.2014059138246448 -1.8790343557240528 0.17716172009556008 C -1.9043868554521814 0.15045847243109767 -1.872696230792021 0.12458645426591641 -1.8609551141146503 0.10096568266129424 C -1.8240346705215007 0.02667454616288434 -1.784412731055682 -0.046231207836720634 -1.7463493469010194 -0.11993355677313777 C -1.737171187846437 -0.13794352925760128 -1.7296208532279507 -0.15702717317863835 -1.7147279913657982 -0.18999927665019373 Z M -1.7837893089312198 0.10719990390591538 L -1.5916021217845173 0.051784603953721975 C -1.5361868218323238 -0.057210364139749004 -1.478554909882042 -0.16045599486318024 -1.4201610375574183 -0.2812613487589627 C -1.4940624635241098 -0.26500532755061507 -1.5666587260722564 -0.24329938076736257 -1.6373543788075464 -0.21632154412748528 C -1.6754523975246802 -0.1435889629402311 -1.7127884558674713 -0.07303835918859436 -1.749189381023569 -0.0018296987500246997 C -1.7655368945094665 0.030138002409896725 -1.7797716996846864 0.06324864413133247 -1.7949416380465988 0.09583976741571631 L -1.8029768565396673 0.10740771128073667 Z M -0.8883126962662387 -0.1809596558454925 C -0.870371992906716 -0.16710583085744335 -0.8530547116716551 -0.17940110053433755 -0.836949640123049 -0.1841806701552131 C -0.7525452113833637 -0.2092560933835803 -0.6685910319557895 -0.23578616823569382 -0.5846368525282166 -0.26231624308780666 C -0.5701249708532357 -0.2669226398963327 -0.5563404149901274 -0.2739188215152975 -0.5399929015042302 -0.28074183032191147 C -0.5455099346450398 -0.33012809901592377 -0.5597954767154145 -0.3781336192901773 -0.5821777985928376 -0.4225010945121165 C -0.5992616987934798 -0.45832962557716433 -0.6318871882868555 -0.4842997196022367 -0.6706344711415264 -0.49291316001387087 C -0.715001345665752 -0.5036152398171403 -0.7309332444020074 -0.500255687257538 -0.751956423821371 -0.4582785975437519 C -0.7935178987855165 -0.3748093019907598 -0.8383003880593827 -0.2928985617489226 -0.8810740727099828 -0.21001805375792254 C -0.8845050259824172 -0.2005569574919664 -0.886727670471025 -0.19070051831997697 -0.8876892741417775 -0.180682579345731 L -0.8962440110718966 -0.17285516822748243 L -0.8898366170149239 -0.17122734379138727 Z M -0.8296763820043234 -0.4649630681004854 L -1.0311456318930179 -0.40850873127418763 C -1.1157578680075244 -0.26622994864693 -1.1817367095131048 -0.13389128544859757 -1.1971837243747787 -0.07425056887504833 C -1.1250399307495167 -0.0915678501101091 -1.0577103413076019 -0.11529252540214197 -0.9900690408034551 -0.13766645275783984 C -0.9786355010365093 -0.14321688605197602 -0.9694888099501167 -0.1525717347668421 -0.9641970226382739 -0.16412725848501247 C -0.914219348993889 -0.2600303619647786 -0.8652807122236077 -0.3564876184440656 -0.8160996335160362 -0.45280633667347225 L -0.8170347667027293 -0.47209778796932994 Z M -1.1198101118165282 -0.36625456506064 C -1.1345298008663296 -0.3785152001750631 -1.1496997392282426 -0.3697180213076523 -1.163657467903701 -0.36563114293617816 C -1.2107604728630665 -0.35177731794812894 -1.2568590755107971 -0.3344600367130688 -1.304412329782273 -0.32268428547322714 C -1.332235578332525 -0.3160577219267878 -1.3552054517472585 -0.29651272874093165 -1.3662003892289687 -0.2701090196435835 C -1.40949359231662 -0.18483872684214536 -1.4543799852778967 -0.10039966353998969 -1.4980541685527196 -0.015337178113372874 C -1.5031108146733567 -0.0055009623718582645 -1.5153714497877804 0.004958675494118769 -1.4989893017394127 0.02189497654200745 L -1.282696459113506 -0.04581559308708005 C -1.2290475218472883 -0.14798755237393718 -1.177303485516927 -0.24628044066414134 -1.126044333061148 -0.34481577089163595 C -1.1234931271245758 -0.3520368178958505 -1.1219659153416428 -0.3595796119688097 -1.121507205377562 -0.3672243328098042 C -1.1197944599350722 -0.3684781909660484 -1.1182159648780632 -0.3699058004661372 -1.1167969048816269 -0.37148438399362854 C -1.1164505592569252 -0.37193463330574017 -1.1179052108806702 -0.37373563055418624 -1.118528633005132 -0.3749478402406408 Z M -2.161513847230361 0.6130723233445051 C -2.162622153229405 0.6334374460769364 -2.1638689974783296 0.64600979225359 -2.1638689974783296 0.6586167729927143 C -2.16400753572821 0.9177525693941605 -2.16400753572821 1.1768999106497637 -2.1638689974783296 1.4360587967595237 C -2.1638689974783296 1.4438169387528306 -2.164076804853151 1.4516097153086083 -2.163557286416099 1.4593678573019155 C -2.163732543316217 1.4922079177099872 -2.1505494310473194 1.5237081367283292 -2.127035608378497 1.54663411383043 C -2.1035217857096766 1.5695600909325313 -2.0716979634711405 1.5819416330589364 -2.0388728615236635 1.5809351715720408 C -2.0259541697223082 1.5816624973839133 -2.0129662087960134 1.5811776135093316 -2.000012882432187 1.5811776135093316 L -0.6161543043760269 1.5811776135093316 C -0.5980057936416836 1.5811776135093316 -0.5797533792199296 1.5817664010713233 -0.5617780412979372 1.5801039420727574 C -0.5163357930630517 1.5778614706713512 -0.4767582444140739 1.5483699017437762 -0.4616148866343468 1.5054664599496466 C -0.4542971141158947 1.4834782166176148 -0.4509546231185526 1.4603622525623146 -0.4517440363303624 1.4372017373210375 C -0.4511206142058999 1.1780197615029642 -0.4511206142058999 0.9188608753932052 -0.4517440363303624 0.6597250789917589 C -0.4526276994150433 0.6441028748695622 -0.4543619986644245 0.628540429605121 -0.4569392207008818 0.6131069579069722 Z M -1.8837446562199895 0.28716109050066574 C -1.9680798158347346 0.28892745318664126 -2.0629785170028665 0.2823122517548493 -2.1567342776094844 0.29104016149731926 C -2.1670980174242085 0.37842863397662463 -2.1665512112624716 0.4667669145313028 -2.1551064531733877 0.5540203943329473 C -2.0950501218501985 0.5591809441409964 -2.0334698697783233 0.5566179865182067 -1.9720281559563282 0.5558560261438644 C -1.9612018390086101 0.5533842535629813 -1.950786164968993 0.5493719446384252 -1.9410994916705113 0.5439417366541429 C -1.975422343078401 0.5093071741840222 -2.004792452053063 0.4805604873338213 -2.033088889591152 0.4507747636095173 C -2.0415413202932733 0.44128238475794035 -2.0486182115840816 0.43064955962249163 -2.0541120690105155 0.4191880426367668 C -2.059099446006213 0.4095596342700736 -2.042751932520316 0.3901296447243354 -2.032673274841511 0.39393944659604807 C -2.0206969176894973 0.39790337417356114 -2.0096129899109814 0.40417485347923987 -2.0000475169946563 0.412399668392622 C -1.9608411922784788 0.45004743779764367 -1.9221197514368835 0.488214725639717 -1.8845758857192725 0.527490319480835 C -1.8675579853706819 0.5472157671150065 -1.842481922354712 0.5581156318219996 -1.8164497013405438 0.5571028703927882 C -1.7595451152021342 0.5556828533315129 -1.7025712599387852 0.5568257938930267 -1.6456320392379067 0.555925295268804 C -1.6368656172635707 0.554306007041865 -1.6284128959404005 0.5513013744276812 -1.6205912505720086 0.5470242127139832 Z M -0.4550689543274924 0.5509725528355777 C -0.4500111594532503 0.5066626441727337 -0.4490025849751973 0.4619839540759817 -0.45205574739259236 0.4174909490757295 C -0.4534411298913972 0.3748211681125413 -0.4419770897137867 0.33052356271325656 -0.4607836571350623 0.29000112462321415 C -0.618509454623994 0.28068442731875143 -0.7882188107275878 0.2840093453158833 -0.8452273005534066 0.29845195786592393 C -0.8348369318123703 0.3114745533546893 -0.8264207331321309 0.32356201565676157 -0.8163074408908555 0.3338138461479174 C -0.7671956313082235 0.3835837124174817 -0.7175989378510108 0.4329033293749329 -0.6681407826436772 0.482361484582266 C -0.5896588640863825 0.5608087685770903 -0.5896588640863825 0.5608087685770903 -0.4789668024318754 0.5559599298312737 C -0.4709728070021968 0.5547656360895964 -0.46305212999269374 0.5531236855270426 -0.4552421271398439 0.5510418219605179 Z M -1.3047586754069747 0.5523579353343823 L -1.5711677299271471 0.2869879176883142 L -1.7570167921418163 0.2869879176883142 C -1.7671647189455622 0.2869879176883142 -1.7777975296238888 0.286468399251263 -1.7798063342471555 0.30430519892337504 C -1.704718602811933 0.379531468608478 -1.6282108543154352 0.45687044660425824 -1.5506640689448337 0.5331703877259354 C -1.5403095362774168 0.5444914510673776 -1.5265222585232165 0.552096966156853 -1.5114231096661852 0.5548169892697606 C -1.4597137078982954 0.557587754267371 -1.4077618641931142 0.5566872556431476 -1.3559139241753417 0.5565140828307974 C -1.3415752153127132 0.5566179865182067 -1.327028699075263 0.5541935671452988 -1.3049318482193255 0.5524272044593231 Z M -1.462900087645548 0.29803634311628335 C -1.4616731131880942 0.30422429648643357 -1.4592367631538434 0.310109199950807 -1.455730733214233 0.3153536243513442 C -1.3829981520269787 0.38895206960035134 -1.3097114178402023 0.46185782359995564 -1.2370827403403588 0.5355255379739036 C -1.2224987901258848 0.5503923117250852 -1.2021758093525703 0.5581903708899704 -1.1813903638884038 0.5568950630179682 C -1.1296463275580433 0.556375544580917 -1.0779369257901525 0.5568950630179682 -1.0261928894597916 0.5563062754559761 C -1.0169108267177993 0.5563062754559761 -1.004823364415727 0.5586614257039452 -1.0011521007938933 0.544842235278367 C -1.0791991075649154 0.45335491747738155 -1.1640158850987554 0.3678666448443112 -1.2548849054499958 0.28910062599899744 C -1.3226993787664978 0.2891006259989928 -1.389959699083473 0.2891006259989928 -1.457046846588097 0.28934306793628384 C -1.4584322290869016 0.28937770249875294 -1.4599561498355875 0.29332604262034734 -1.4630732604578982 0.2981056122412229 Z M -1.1607135300937415 0.2898279518108646 C -1.1555494794807486 0.29992502567905077 -1.149572624679037 0.3095852909980976 -1.1428420958591603 0.3187131769109458 C -1.0721875884201122 0.3901642792868052 -1.000840389731663 0.4609573249757336 -0.9306014970422567 0.5328586766637048 C -0.9143794542585417 0.5496681628187198 -0.8915670769300401 0.5584636016331527 -0.868259284596038 0.5568950630179695 C -0.8167230556404974 0.5562370063310359 -0.7651521921224871 0.5568950630179682 -0.7136159631669472 0.5562370063310359 C -0.7041260930501336 0.5562370063310359 -0.6924888800601732 0.5576223888298407 -0.6890600583756312 0.5441149094664938 C -0.7669015798982639 0.45344029527876495 -0.8511407645652485 0.3684603428433445 -0.9411304040331727 0.2898279518108626 Z" fill="#ffffff" transform="matrix(1,0,0,1,0,0)" fill-rule="nonzero"></path></g><g clip-path="url(#SvgjsClipPath1000a6d252cf-60d0-42e9-81b3-c75c02fca2a3)"><path d=" M -0.5200433935214401 1.0170844945584676 L -0.5200433935214401 1.2088907015179986 C -0.5200433935214401 1.2763241946473247 -0.5200433935214401 1.3437230532141804 -0.5200433935214401 1.411156546343506 C -0.5193964808643321 1.429282094544467 -0.5201956072482106 1.4474303705377638 -0.5224331783318783 1.4654289057341852 C -0.5256712097761236 1.4895306991587116 -0.5448019148144931 1.5083907538651906 -0.5689473957292508 1.5112850664446267 C -0.5817636221641818 1.5131646456615404 -0.5947233687793276 1.513883343595475 -0.6076688365708467 1.513432409317773 C -0.773614570219354 1.5134324093177738 -0.9395487590137042 1.5133631401928334 -1.1054714029538975 1.513224601942953 C -1.1102440262341622 1.5125475298865223 -1.1149038015744943 1.5112311433528784 -1.119325227941946 1.509310896383829 C -1.12625214043597 1.4965653773948246 -1.1164851938193963 1.490054079650442 -1.1089348592009092 1.4839583966557006 C -0.9253024089843271 1.3358610075334627 -0.7415314205178642 1.1879367912235752 -0.5576218938015209 1.040185747726039 C -0.545487233569889 1.0318659019482421 -0.5329455139123103 1.0241559231357034 -0.5200433935214401 1.0170844945584672 Z" fill="#80caff" transform="matrix(1,0,0,1,0,0)" fill-rule="nonzero"></path></g></g></g><defs><clipPath id="SvgjsClipPath1001"><path d=" M -2.2634433645799272 -0.5507875139014452 h 1.8634433645799273 v 2.1845750278028904 h -1.8634433645799273 Z"></path></clipPath><clipPath id="SvgjsClipPath1000a6d252cf-60d0-42e9-81b3-c75c02fca2a3"><path d=" M -2.2634433645799272 -0.5507875139014452 L -0.3999999999999999 -0.5507875139014452 L -0.3999999999999999 1.6337875139014453 L -2.2634433645799272 1.6337875139014453 Z"></path></clipPath></defs></svg>